Coordinates
version=1
nRows=34
nColumns=38
inDegrees=no

Units are S.I. units (second, meters, Newtons, ...)
If the header above contains a line with 'inDegrees', this indicates whether rotational values are in degrees (yes) or radians (no).

endheader
time	pelvis_tilt	pelvis_list	pelvis_rotation	pelvis_tx	pelvis_ty	pelvis_tz	hip_flexion_r	hip_adduction_r	hip_rotation_r	knee_angle_r	ankle_angle_r	subtalar_angle_r	mtp_angle_r	hip_flexion_l	hip_adduction_l	hip_rotation_l	knee_angle_l	ankle_angle_l	subtalar_angle_l	mtp_angle_l	lumbar_extension	lumbar_bending	lumbar_rotation	arm_flex_r	arm_add_r	arm_rot_r	elbow_flex_r	pro_sup_r	wrist_flex_r	wrist_dev_r	arm_flex_l	arm_add_l	arm_rot_l	elbow_flex_l	pro_sup_l	wrist_flex_l	wrist_dev_l
22.26	0.178167	1.43177	1.50739	0.354524	1.57643	1.06019	0.120048	-0.041969	-0.0166738	0.290882	-0.169541	0	0	0.119235	-0.105818	-0.304536	0.443005	-0.134529	0	0	-0.217546	0.00762284	0.0327417	0.85794	-0.362808	0.920091	0.506506	0.796549	0	0	0.734162	-0.312426	0.665354	0.648715	1.01019	0	0
22.27	0.17756	1.43053	1.50793	0.354207	1.57698	1.05996	0.12058	-0.0423682	-0.0170101	0.29041	-0.169358	0	0	0.119875	-0.105433	-0.304669	0.442958	-0.133766	0	0	-0.218435	0.00672411	0.032889	0.853804	-0.361529	0.910017	0.506551	0.804979	0	0	0.731926	-0.311162	0.659745	0.648379	1.01918	0	0
22.28	0.177487	1.42935	1.50801	0.35388	1.57752	1.05971	0.121055	-0.0427165	-0.0173786	0.290032	-0.168982	0	0	0.12054	-0.10515	-0.304749	0.443125	-0.132891	0	0	-0.219278	0.00591432	0.0328825	0.849575	-0.360458	0.900355	0.507212	0.813161	0	0	0.729867	-0.31018	0.654524	0.647865	1.02925	0	0
22.29	0.178854	1.42797	1.50687	0.353604	1.57811	1.05943	0.121436	-0.042645	-0.0178406	0.289259	-0.16857	0	0	0.121419	-0.105275	-0.304725	0.44351	-0.131927	0	0	-0.21979	0.00513306	0.0326868	0.844998	-0.359646	0.890734	0.50863	0.821184	0	0	0.727422	-0.309372	0.648415	0.647629	1.03906	0	0
22.3	0.179928	1.42642	1.50605	0.353305	1.57869	1.05912	0.121953	-0.0426308	-0.0183011	0.288463	-0.168044	0	0	0.122553	-0.105374	-0.304662	0.444054	-0.130818	0	0	-0.220093	0.004243	0.0323197	0.8401	-0.359061	0.878599	0.51129	0.831774	0	0	0.724033	-0.308542	0.638626	0.648855	1.04986	0	0
22.31	0.180155	1.42483	1.50587	0.352945	1.57929	1.0588	0.122516	-0.0428978	-0.0186173	0.287603	-0.167424	0	0	0.123658	-0.105242	-0.304833	0.444464	-0.129702	0	0	-0.220137	0.00333191	0.0318976	0.835759	-0.358759	0.865168	0.514955	0.846546	0	0	0.720104	-0.308123	0.625766	0.652565	1.06126	0	0
22.32	0.180088	1.42329	1.50605	0.352569	1.57987	1.05848	0.123003	-0.043221	-0.0188484	0.286679	-0.166853	0	0	0.124836	-0.105076	-0.304828	0.445086	-0.128568	0	0	-0.219905	0.00250755	0.0312687	0.832301	-0.358431	0.852613	0.518764	0.861626	0	0	0.717049	-0.308745	0.614261	0.658215	1.07097	0	0
22.33	0.180226	1.4218	1.50598	0.352169	1.58047	1.05815	0.12346	-0.043582	-0.0192583	0.28585	-0.166394	0	0	0.126	-0.105041	-0.305106	0.445914	-0.12736	0	0	-0.219446	0.00190875	0.0306503	0.829054	-0.358081	0.840314	0.522579	0.875498	0	0	0.714711	-0.309796	0.604612	0.664644	1.07789	0	0
22.34	0.179641	1.42031	1.50668	0.351737	1.58106	1.0578	0.123921	-0.0441072	-0.0197347	0.285004	-0.165977	0	0	0.12705	-0.104743	-0.304972	0.446432	-0.12617	0	0	-0.21881	0.00115008	0.0303792	0.825962	-0.358379	0.830406	0.526221	0.884405	0	0	0.713506	-0.310665	0.599075	0.670309	1.08062	0	0
22.35	0.178849	1.41856	1.5076	0.351268	1.58164	1.05741	0.124721	-0.0446657	-0.020081	0.28422	-0.165415	0	0	0.128407	-0.104301	-0.304515	0.446979	-0.124734	0	0	-0.217828	0.000632656	0.0301237	0.823029	-0.358872	0.821152	0.529707	0.892	0	0	0.712175	-0.311287	0.595232	0.675354	1.0812	0	0
22.36	0.178346	1.41688	1.50827	0.350771	1.58223	1.057	0.125496	-0.045196	-0.0205013	0.283644	-0.164727	0	0	0.129674	-0.103842	-0.304069	0.447668	-0.123137	0	0	-0.216616	0.000490468	0.0297585	0.820969	-0.359656	0.814991	0.532671	0.897669	0	0	0.710894	-0.312161	0.59383	0.679441	1.08224	0	0
22.37	0.177943	1.41501	1.50898	0.350238	1.58282	1.05655	0.126548	-0.0456637	-0.0210113	0.283419	-0.163728	0	0	0.131246	-0.103349	-0.30347	0.448638	-0.121148	0	0	-0.215122	0.000430731	0.0292732	0.818986	-0.36084	0.809456	0.535809	0.903086	0	0	0.70932	-0.313291	0.592892	0.683661	1.08383	0	0
22.38	0.177293	1.41295	1.50977	0.349677	1.58345	1.05607	0.127891	-0.0461935	-0.0214723	0.283517	-0.162469	0	0	0.132864	-0.102768	-0.30314	0.449455	-0.119001	0	0	-0.213319	0.000297537	0.0289612	0.816793	-0.362289	0.804237	0.538767	0.908341	0	0	0.707453	-0.314538	0.592095	0.687773	1.08645	0	0
22.39	0.176888	1.41077	1.5103	0.349123	1.58409	1.05559	0.129403	-0.046778	-0.0216092	0.28354	-0.161223	0	0	0.134658	-0.102272	-0.302822	0.450351	-0.116848	0	0	-0.211468	8.44543e-06	0.0287653	0.814321	-0.363786	0.798981	0.541254	0.913553	0	0	0.705424	-0.315806	0.591317	0.691719	1.08977	0	0
22.4	0.175587	1.40821	1.51158	0.348577	1.5848	1.05507	0.131118	-0.0473587	-0.0212007	0.283266	-0.159768	0	0	0.136846	-0.101682	-0.302697	0.45145	-0.114487	0	0	-0.209251	-0.000581322	0.0286723	0.811108	-0.365066	0.792311	0.543386	0.9203	0	0	0.702791	-0.316976	0.58976	0.69595	1.09365	0	0
22.41	0.175513	1.40597	1.51165	0.34791	1.58553	1.05457	0.132109	-0.0477294	-0.0206944	0.282333	-0.158723	0	0	0.138738	-0.101191	-0.302577	0.452605	-0.112422	0	0	-0.207184	-0.000665088	0.0284816	0.808366	-0.366508	0.788053	0.544355	0.926512	0	0	0.700142	-0.317631	0.588454	0.699451	1.09693	0	0
22.42	0.176631	1.40362	1.51072	0.347147	1.58624	1.05407	0.13357	-0.0480927	-0.0206539	0.282377	-0.157368	0	0	0.141187	-0.100896	-0.302036	0.454447	-0.109919	0	0	-0.205138	-0.000360216	0.0280974	0.805524	-0.368	0.784051	0.544533	0.936336	0	0	0.69721	-0.317835	0.58607	0.703071	1.10128	0	0
22.43	0.178327	1.40147	1.50923	0.34632	1.58698	1.05361	0.13542	-0.0486562	-0.0216705	0.283934	-0.155733	0	0	0.143559	-0.100696	-0.301569	0.456485	-0.107728	0	0	-0.203255	0.000162844	0.0276913	0.802507	-0.369279	0.78097	0.543535	0.947787	0	0	0.694083	-0.317539	0.583108	0.706386	1.10623	0	0
22.44	0.178223	1.3989	1.50932	0.34554	1.58778	1.05313	0.137567	-0.0493888	-0.0216719	0.284965	-0.154069	0	0	0.146449	-0.100348	-0.301464	0.458622	-0.106226	0	0	-0.200778	0.000173697	0.0274951	0.798445	-0.369789	0.77678	0.541473	0.96017	0	0	0.690565	-0.317047	0.579938	0.709568	1.11244	0	0
22.45	0.178783	1.39629	1.50889	0.344678	1.58854	1.05266	0.13943	-0.0499886	-0.0208299	0.284936	-0.152945	0	0	0.149837	-0.100106	-0.30106	0.461394	-0.104788	0	0	-0.198476	0.000438255	0.0272277	0.793536	-0.370156	0.770883	0.539976	0.971361	0	0	0.686817	-0.316088	0.576324	0.712564	1.11951	0	0
22.46	0.180087	1.39389	1.50786	0.343727	1.58927	1.05223	0.140736	-0.0503762	-0.0194446	0.284137	-0.15227	0	0	0.153339	-0.0999361	-0.300471	0.464638	-0.103318	0	0	-0.196519	0.000904219	0.0267718	0.787739	-0.370152	0.76209	0.539967	0.978834	0	0	0.682745	-0.314937	0.57276	0.715481	1.1275	0	0
22.47	0.179694	1.3914	1.50818	0.342835	1.59005	1.05184	0.1432	-0.051167	-0.018789	0.285916	-0.151032	0	0	0.156854	-0.0995495	-0.300146	0.46765	-0.102203	0	0	-0.194303	0.000787691	0.02638	0.781939	-0.370086	0.752818	0.541718	0.984933	0	0	0.678072	-0.314035	0.569615	0.718382	1.13619	0	0
22.48	0.179363	1.38934	1.50832	0.341829	1.5908	1.0515	0.146033	-0.0523478	-0.0189077	0.289601	-0.149354	0	0	0.159915	-0.0990076	-0.300006	0.470609	-0.101308	0	0	-0.192492	0.000854698	0.0257089	0.777621	-0.3707	0.746539	0.544722	0.989875	0	0	0.672851	-0.313153	0.566741	0.721199	1.14337	0	0
22.49	0.179986	1.38692	1.50778	0.340771	1.59155	1.05113	0.148894	-0.0532563	-0.0181488	0.292513	-0.147469	0	0	0.16371	-0.0987077	-0.29953	0.474168	-0.100292	0	0	-0.190315	0.00107689	0.024775	0.773152	-0.371562	0.74	0.548645	0.994077	0	0	0.666848	-0.312277	0.562897	0.724524	1.15096	0	0
22.5	0.182547	1.38395	1.50572	0.33976	1.5923	1.05071	0.152925	-0.0537369	-0.0178338	0.296994	-0.144688	0	0	0.168653	-0.0991247	-0.298777	0.478804	-0.0989816	0	0	-0.187881	0.00132829	0.0239559	0.767249	-0.372832	0.730435	0.554134	0.998748	0	0	0.660189	-0.311093	0.556241	0.728805	1.16235	0	0
22.51	0.186756	1.38132	1.50223	0.338769	1.59302	1.05033	0.156512	-0.0537323	-0.0169021	0.301027	-0.142458	0	0	0.173429	-0.0999128	-0.297638	0.48358	-0.097885	0	0	-0.185844	0.00156038	0.0233968	0.761219	-0.374539	0.721812	0.559442	1.00257	0	0	0.653982	-0.309986	0.549935	0.733451	1.172	0	0
22.52	0.191865	1.3786	1.49775	0.337503	1.59375	1.04993	0.161073	-0.0541458	-0.0169696	0.307117	-0.140043	0	0	0.17813	-0.100522	-0.296986	0.488093	-0.0968745	0	0	-0.183713	0.00244697	0.0227235	0.755094	-0.377201	0.714506	0.565413	1.00578	0	0	0.647169	-0.308985	0.543428	0.739329	1.18048	0	0
22.53	0.197009	1.37584	1.49333	0.336232	1.59449	1.04952	0.166013	-0.0544997	-0.0165851	0.313961	-0.137315	0	0	0.182813	-0.101169	-0.29625	0.492501	-0.0959246	0	0	-0.18164	0.00339402	0.0218934	0.749168	-0.380724	0.709671	0.57175	1.00936	0	0	0.640233	-0.308496	0.537209	0.746401	1.18808	0	0
22.54	0.201964	1.37284	1.48894	0.334847	1.5953	1.04906	0.171415	-0.0549373	-0.0156992	0.321178	-0.134339	0	0	0.187188	-0.101566	-0.296001	0.496042	-0.0950171	0	0	-0.179302	0.00464638	0.0209177	0.743216	-0.384802	0.706243	0.578249	1.01386	0	0	0.632395	-0.308013	0.529966	0.754449	1.19658	0	0
22.55	0.207353	1.37009	1.48409	0.333226	1.59616	1.04862	0.176741	-0.0556392	-0.0151248	0.328811	-0.131773	0	0	0.19056	-0.101554	-0.295809	0.498413	-0.0940959	0	0	-0.17714	0.00642516	0.0196028	0.737464	-0.388963	0.703938	0.58426	1.01749	0	0	0.62406	-0.307489	0.523094	0.762634	1.20512	0	0
22.56	0.21328	1.36737	1.47883	0.33156	1.59704	1.04815	0.182399	-0.0561604	-0.0142912	0.337592	-0.128723	0	0	0.193517	-0.101577	-0.295433	0.500469	-0.0927063	0	0	-0.174937	0.00841408	0.017804	0.731798	-0.392624	0.702184	0.589688	1.01943	0	0	0.615211	-0.307271	0.516417	0.77086	1.2137	0	0
22.57	0.220322	1.36488	1.47248	0.329877	1.59799	1.04766	0.188092	-0.056339	-0.0132081	0.347379	-0.125161	0	0	0.195687	-0.101908	-0.295385	0.502103	-0.0910638	0	0	-0.172765	0.0107226	0.0155733	0.727095	-0.396407	0.703468	0.594164	1.0248	0	0	0.605677	-0.307353	0.509642	0.778847	1.22225	0	0
22.58	0.227941	1.36237	1.46558	0.328216	1.59899	1.04715	0.194222	-0.0564341	-0.0118407	0.35823	-0.121104	0	0	0.197248	-0.102436	-0.295203	0.502813	-0.0892874	0	0	-0.170332	0.0131653	0.0129702	0.723052	-0.400029	0.706327	0.597598	1.0349	0	0	0.595585	-0.307891	0.503212	0.786454	1.23082	0	0
22.59	0.236917	1.35963	1.45717	0.326533	1.60009	1.0466	0.200823	-0.0561937	-0.00984344	0.369622	-0.117012	0	0	0.197914	-0.103109	-0.294502	0.501705	-0.0873669	0	0	-0.167785	0.0160732	0.0108886	0.717418	-0.403045	0.704997	0.601905	1.03978	0	0	0.585211	-0.308096	0.497091	0.79361	1.2395	0	0
